<?xml version="1.0" encoding="iso-8859-1"?>
<!-- Generator: Adobe Illustrator 19.0.0, SVG Export Plug-In . SVG Version: 6.00 Build 0)  -->
<svg version="1.1" id="Layer_1" xmlns="http://www.w3.org/2000/svg" xmlns:xlink="http://www.w3.org/1999/xlink" x="0px" y="0px"
	 viewBox="0 0 512 512" style="enable-background:new 0 0 512 512;" xml:space="preserve">
<g>
	<g>
		<path d="M270.674,0l83.628,83.629L224.389,212.801l74.811,74.81l129.172-129.914L512,241.326V0H270.674z M493.494,196.65
			l-65.161-65.161L299.161,261.401l-48.562-48.564L380.51,83.666l-65.16-65.16h178.144V196.65z"/>
	</g>
</g>
<g>
	<g>
		<rect x="379.373" y="37.012" width="86.361" height="18.506"/>
	</g>
</g>
<g>
	<g>
		<path d="M287.611,299.201l-74.811-74.81L83.628,354.303L0,270.674V512h241.326l-83.628-83.628L287.611,299.201z M196.65,493.494
			H18.506V315.35l65.162,65.161L212.84,250.599l48.562,48.563L131.49,428.334L196.65,493.494z"/>
	</g>
</g>
<g>
	<g>
		<rect x="46.265" y="456.482" width="86.361" height="18.506"/>
	</g>
</g>
<g>
</g>
<g>
</g>
<g>
</g>
<g>
</g>
<g>
</g>
<g>
</g>
<g>
</g>
<g>
</g>
<g>
</g>
<g>
</g>
<g>
</g>
<g>
</g>
<g>
</g>
<g>
</g>
<g>
</g>
</svg>
