<?xml version="1.0" encoding="iso-8859-1"?>
<!-- Generator: Adobe Illustrator 19.0.0, SVG Export Plug-In . SVG Version: 6.00 Build 0)  -->
<svg version="1.1" id="Layer_1" xmlns="http://www.w3.org/2000/svg" xmlns:xlink="http://www.w3.org/1999/xlink" x="0px" y="0px"
	 viewBox="0 0 512 512" style="enable-background:new 0 0 512 512;" xml:space="preserve">
<g>
	<path style="fill:#CEE8FA;" d="M457.042,282.666l38.231-252.775c1.165-7.702-5.462-14.329-13.164-13.164L229.333,54.957
		c-9.38,1.419-13.156,12.906-6.448,19.614L437.43,289.116C444.138,295.823,455.624,292.046,457.042,282.666z"/>
	<path style="fill:#CEE8FA;" d="M54.957,229.334L16.726,482.109c-1.165,7.702,5.462,14.329,13.164,13.164l252.775-38.231
		c9.38-1.419,13.156-12.906,6.448-19.614L74.569,222.886C67.863,216.177,56.376,219.954,54.957,229.334z"/>
</g>
<path style="fill:#2D527C;" d="M505.193,9.808C499.834,3.576,492.062,0,483.874,0c-1.414,0-2.842,0.108-4.246,0.32L226.851,38.551
	c-10.564,1.598-19.199,8.897-22.537,19.046c-3.337,10.15-0.718,21.149,6.838,28.707l33.576,33.576l-124.85,124.85l-33.575-33.575
	c-5.326-5.326-12.376-8.261-19.849-8.261c-14.069,0-25.803,10.075-27.903,23.958L0.32,479.628
	c-1.228,8.12,1.137,16.344,6.486,22.564C12.165,508.424,19.937,512,28.127,512c1.414,0,2.841-0.108,4.246-0.32l252.777-38.232
	c10.564-1.598,19.199-8.897,22.537-19.046c3.337-10.15,0.718-21.149-6.838-28.706l-33.576-33.576l51.928-51.929
	c13.09-13.091,13.09-34.389,0-47.477l-61.163-61.163c-6.481-6.479-16.984-6.479-23.467,0c-6.479,6.479-6.479,16.986,0,23.465
	l61.163,61.163c0.151,0.151,0.151,0.397,0,0.548l-51.928,51.928L143.345,268.19l124.849-124.85l157.502,157.5
	c5.326,5.326,12.375,8.261,19.849,8.261c0,0,0,0,0.002,0c14.067,0,25.801-10.075,27.902-23.958l38.23-252.772
	C512.909,24.253,510.544,16.028,505.193,9.808z M34.152,477.85l35.722-236.193l200.471,200.469L34.152,477.85z M442.126,270.345
	L241.655,69.874L477.849,34.15L442.126,270.345z"/>
<g>
</g>
<g>
</g>
<g>
</g>
<g>
</g>
<g>
</g>
<g>
</g>
<g>
</g>
<g>
</g>
<g>
</g>
<g>
</g>
<g>
</g>
<g>
</g>
<g>
</g>
<g>
</g>
<g>
</g>
</svg>
