<?xml version="1.0" encoding="iso-8859-1"?>
<!-- Generator: Adobe Illustrator 18.1.1, SVG Export Plug-In . SVG Version: 6.00 Build 0)  -->
<svg version="1.1" id="Capa_1" xmlns="http://www.w3.org/2000/svg" xmlns:xlink="http://www.w3.org/1999/xlink" x="0px" y="0px"
	 viewBox="0 0 127.38 127.38" style="enable-background:new 0 0 127.38 127.38;" xml:space="preserve">
<g>
	<path style="fill:#010002;" d="M122.202,57.276c-1.906-8.3-10.963-6.144-10.963-6.144c-4.928-6.465-10.223-0.528-10.223-0.528
		c-5.684-6.215-10.561,0.979-10.561,0.979c-0.597,0.019-5.096-10.989-8.209-18.196c0.798-1.216,1.265-2.668,1.265-4.231
		c0-4.269-3.46-7.729-7.729-7.729c-4.268,0-7.729,3.46-7.729,7.729c0,3.948,2.962,7.198,6.784,7.665
		c5.396,16.655,6.55,21.948,6.55,21.948c-0.26,3.437,0.006,11.722,0.006,11.722c-3.033,6.864,0.479,9.891,0.479,9.891
		c6.354,5.715,17.702,12.29,17.702,12.29c4.52,1.855,3.09,4.281,3.09,4.281l24.49-7.817L127,84.163
		C129.04,71.764,122.202,57.276,122.202,57.276z M69.653,29.155c0-3.385,2.744-6.128,6.129-6.128c3.384,0,6.13,2.743,6.13,6.128
		c0,0.841-0.17,1.642-0.477,2.372c-1.123-2.548-1.952-4.284-2.146-4.252c-1.422-2.423-8.515-5.688-6.241,4.083
		c0.429,1.299,0.837,2.542,1.225,3.731C71.619,34.416,69.653,32.018,69.653,29.155z M114.868,67.837
		c-0.524,1-5.568,10.273-5.568,10.273s-0.66,1.271-1.064-0.012c-0.402-1.287-1.043-3.342-1.043-3.342s-0.561,0.179-1.408,0.443
		c-2.638,0.828-7.766,2.434-9.73,3.048c0,0-0.456,0.155-0.645-0.438c-0.187-0.598-2.305-7.359-2.562-8.197
		c-0.266-0.832,0.327-0.857,0.327-0.857l0,0c2.02-0.633,6.982-2.186,9.709-3.043c0.954-0.295,1.574-0.487,1.574-0.487
		s-0.801-2.559-1.129-3.616c-0.334-1.057,0.893-0.373,0.893-0.373l10.244,5.54C114.466,66.776,115.243,67.109,114.868,67.837z
		 M51.58,29.156c-4.269,0-7.729,3.46-7.729,7.729c0,1.781,0.608,3.416,1.62,4.723c-3.115,7.161-7.927,18.995-8.547,18.976
		c0,0-4.878-7.194-10.562-0.979c0,0-5.294-5.937-10.223,0.528c0,0-9.057-2.156-10.963,6.144c0,0-6.837,14.488-4.796,26.887
		l-0.154,4.973l24.489,7.817c0,0-1.43-2.426,3.091-4.281c0,0,11.348-6.575,17.701-12.29c0,0,3.513-3.026,0.479-9.891
		c0,0,0.266-8.285,0.006-11.722c0,0,1.217-5.579,6.985-23.289c3.601-0.658,6.332-3.805,6.332-7.596
		C59.309,32.616,55.848,29.156,51.58,29.156z M33.56,80.796c-1.987,0.535-7.177,1.931-9.847,2.646
		c-0.858,0.231-1.427,0.381-1.427,0.381s0.562,2.078,0.912,3.38c0.348,1.3-0.892,0.581-0.892,0.581s-9.23-5.122-10.208-5.685
		c-0.708-0.413-0.231-1.111-0.231-1.111l5.677-10.17c0,0,0.667-1.234,0.953-0.163c0.291,1.068,0.987,3.657,0.987,3.657
		s0.626-0.17,1.589-0.433c2.761-0.738,7.784-2.09,9.827-2.639c0,0,0.513-0.298,0.736,0.547c0.232,0.845,2.07,7.688,2.232,8.293
		C34.028,80.683,33.56,80.796,33.56,80.796z M53.567,42.677c0.247-0.754,0.5-1.522,0.763-2.318c2.275-9.773-4.817-6.507-6.239-4.084
		c-0.177-0.029-0.883,1.413-1.858,3.6c-0.496-0.885-0.782-1.904-0.782-2.991c0-3.385,2.744-6.128,6.129-6.128
		c3.384,0,6.129,2.743,6.129,6.128C57.709,39.571,55.974,41.85,53.567,42.677z"/>
</g>
<g>
</g>
<g>
</g>
<g>
</g>
<g>
</g>
<g>
</g>
<g>
</g>
<g>
</g>
<g>
</g>
<g>
</g>
<g>
</g>
<g>
</g>
<g>
</g>
<g>
</g>
<g>
</g>
<g>
</g>
</svg>
